<svg width="44" height="38" viewBox="0 0 44 38" fill="none" xmlns="http://www.w3.org/2000/svg">
<path d="M41.0541 7.87815C39.0896 5.44591 36.4212 3.52473 33.0496 2.11481C29.678 0.705051 25.9945 0 22.0004 0C19.0211 0 16.1728 0.41629 13.4556 1.24904C10.7385 2.08171 8.39778 3.20721 6.43344 4.62528C4.46876 6.04353 2.90587 7.72966 1.74349 9.68358C0.581105 11.6376 0 13.6866 0 15.8304C0 18.3038 0.740464 20.6214 2.22199 22.7816C3.70352 24.9415 5.72892 26.7557 8.29913 28.2234C8.11888 28.8827 7.90611 29.5096 7.66049 30.1028C7.41496 30.6964 7.19403 31.1835 6.9976 31.5627C6.801 31.9419 6.53526 32.3626 6.19943 32.8243C5.86412 33.2859 5.61041 33.6117 5.4385 33.8011C5.26676 33.9909 4.98442 34.3047 4.59131 34.741C4.19872 35.1784 3.94484 35.4626 3.83038 35.5949C3.81378 35.6026 3.74842 35.6773 3.63386 35.8172C3.5194 35.9572 3.46195 36.0272 3.46195 36.0272L3.31463 36.2495C3.23267 36.3735 3.19586 36.4517 3.20395 36.484C3.2122 36.5163 3.19586 36.5993 3.15493 36.731C3.11391 36.8632 3.11812 36.9622 3.16714 37.0284V37.053C3.23293 37.3501 3.37612 37.5891 3.59697 37.7701C3.81782 37.9514 4.06774 38.0257 4.34586 37.9922C5.41012 37.8603 6.34305 37.6798 7.14501 37.4484C11.4339 36.3431 15.1989 34.3484 18.4398 31.4621C19.6672 31.594 20.854 31.6602 21.9999 31.6602C25.9939 31.6602 29.6772 30.9551 33.0491 29.5447C36.421 28.135 39.0892 26.2137 41.0534 23.7819C43.0179 21.3507 44 18.6995 44 15.8303C44.0001 12.961 43.018 10.31 41.0541 7.87815Z" fill="white"/>
</svg>
