<svg width="38" height="38" viewBox="0 0 38 38" fill="none" xmlns="http://www.w3.org/2000/svg">
<path d="M36.6558 0H1.22186C0.610929 0 0 0.488743 0 1.22186V36.7781C0 37.3891 0.488743 38 1.22186 38H36.7781C37.3891 38 38 37.5113 38 36.7781V1.22186C37.8778 0.488743 37.3891 0 36.656 0H36.6558ZM11.2411 30.7908C11.2411 31.4018 10.7524 32.0127 10.0192 32.0127H7.08678C6.47585 32.0127 5.86492 31.524 5.86492 30.7908V28.3471C5.86492 27.7362 6.35366 27.1253 7.08678 27.1253H10.0192C10.6302 27.1253 11.2411 27.614 11.2411 28.3471V30.7908ZM11.2411 21.7491C11.2411 22.36 10.7524 22.9709 10.0192 22.9709H7.08678C6.47585 22.9709 5.86492 22.4822 5.86492 21.7491V19.3054C5.86492 18.6944 6.35366 18.0835 7.08678 18.0835H10.0192C10.6302 18.0835 11.2411 18.5723 11.2411 19.3054V21.7491ZM21.5047 30.7908C21.5047 31.4018 21.016 32.0127 20.2829 32.0127H17.3504C16.7395 32.0127 16.1285 31.524 16.1285 30.7908V28.3471C16.1285 27.7362 16.6173 27.1253 17.3504 27.1253H20.2829C20.8938 27.1253 21.5047 27.614 21.5047 28.3471V30.7908ZM21.5047 21.7491C21.5047 22.36 21.016 22.9709 20.2829 22.9709H17.3504C16.7395 22.9709 16.1285 22.4822 16.1285 21.7491V19.3054C16.1285 18.6944 16.6173 18.0835 17.3504 18.0835H20.2829C20.8938 18.0835 21.5047 18.5723 21.5047 19.3054V21.7491ZM32.0127 30.7908C32.0127 31.4018 31.524 32.0127 30.7908 32.0127H27.0031C26.3921 32.0127 25.7812 31.524 25.7812 30.7908V19.3054C25.7812 18.6944 26.27 18.0835 27.0031 18.0835H30.7908C31.4018 18.0835 32.0127 18.5723 32.0127 19.3054V30.7908ZM30.7908 12.7073H7.08678C6.47585 12.7073 5.86492 12.2186 5.86492 11.4855V7.08678C5.86492 6.47585 6.35366 5.86492 7.08678 5.86492H30.7908C31.4018 5.86492 32.0127 6.35366 32.0127 7.08678V11.6075C32.0127 12.2184 31.4018 12.7071 30.7908 12.7071V12.7073Z" fill="white"/>
</svg>
