<svg width="38" height="24" viewBox="0 0 38 24" fill="none" xmlns="http://www.w3.org/2000/svg">
<path fill-rule="evenodd" clip-rule="evenodd" d="M23.7005 12.2783C23.7005 19.1378 19.066 24.0001 12.0894 24.0001C5.40972 24.0001 0 18.6303 0 12C0 5.3697 5.40972 8.18735e-05 12.0894 8.18735e-05C15.355 8.18735e-05 18.0764 1.17862 20.1875 3.14315L16.9054 6.27011C16.0148 5.41882 14.4479 4.42024 12.0894 4.42024C7.96615 4.42024 4.60161 7.80899 4.60161 12C4.60161 16.191 7.96615 19.5797 12.0894 19.5797C16.8724 19.5797 18.6702 16.1582 18.9505 14.4065H12.0894V10.281H23.5026C23.6181 10.8868 23.7005 11.4925 23.7005 12.2783ZM38 10.281V13.7189H34.553V17.1406H31.0895V13.7189H27.6424V10.281H31.0895V6.85941H34.553V10.281H38Z" fill="white"/>
</svg>
