<svg width="42" height="43" viewBox="0 0 42 43" fill="none" xmlns="http://www.w3.org/2000/svg">
<path fill-rule="evenodd" clip-rule="evenodd" d="M0 21.0537C0 32.68 9.29546 42.109 20.7744 42.109C32.242 42.109 41.5385 32.68 41.5385 21.0537C41.5385 9.43061 32.242 0 20.7744 0C9.29546 0 0 9.43061 0 21.0537ZM1.95947 21.0537C1.95947 10.5274 10.3821 1.99219 20.7744 1.99219C31.1559 1.99219 39.5791 10.5274 39.5791 21.0537C39.5791 31.5827 31.1559 40.1179 20.7744 40.1179C10.3821 40.1179 1.95947 31.5827 1.95947 21.0537Z" fill="white"/>
<path fill-rule="evenodd" clip-rule="evenodd" d="M4.20508 20.9784C4.20508 26.4796 6.72939 31.3768 10.6585 34.4983V21.8395C10.6585 20.2898 10.7221 19.106 10.8497 18.2977C10.9778 17.4801 11.2013 16.7372 11.4894 16.0704C12.2982 14.2513 13.5016 12.8198 15.1089 11.7758C16.7168 10.7308 18.5168 10.2033 20.4978 10.2033C21.8284 10.2033 22.9672 10.3541 23.979 10.7101V17.5993C23.8729 17.5993 23.7776 17.5661 23.7232 17.5024C23.0625 16.7698 21.6582 16.404 20.5506 16.404C19.3579 16.404 18.3682 17.0714 17.7388 17.8356C17.1109 18.6101 16.7916 19.7297 16.7916 21.1939V37.5546C18.0694 37.8888 19.4215 38.0619 20.7951 38.0619C29.9635 38.0619 37.3964 30.4068 37.3964 20.9784C37.3964 15.6186 35.0002 10.8276 31.2412 7.69572V19.8043C31.2412 21.3556 31.1772 22.5394 31.0495 23.3455C30.9219 24.1653 30.7092 24.9077 30.4104 25.5761C29.6016 27.3946 28.3987 28.8261 26.7898 29.869C25.1819 30.9141 23.3829 31.4415 21.4025 31.4415C20.0714 31.4415 18.932 31.2897 17.9213 30.9348V24.0461C18.0268 24.0461 18.1227 24.0793 18.1755 24.144C18.8362 24.8761 20.2415 25.2419 21.3492 25.2419C22.5424 25.2419 23.5321 24.573 24.1605 23.8C24.7996 23.0331 25.1082 21.9151 25.1082 20.4406V4.4778C23.7351 4.10005 22.2861 3.89648 20.7951 3.89648C11.6278 3.89648 4.20508 11.538 4.20508 20.9784Z" fill="white"/>
</svg>
